<?xml version="1.0" encoding="utf-8"?>
<!-- Generator: Adobe Illustrator 15.1.0, SVG Export Plug-In . SVG Version: 6.00 Build 0)  -->
<!DOCTYPE svg PUBLIC "-//W3C//DTD SVG 1.1//EN" "http://www.w3.org/Graphics/SVG/1.1/DTD/svg11.dtd">
<svg version="1.1" id="Camada_1" xmlns="http://www.w3.org/2000/svg" xmlns:xlink="http://www.w3.org/1999/xlink" x="0px" y="0px"
	 width="600px" height="600px" viewBox="0 0 600 600" enable-background="new 0 0 600 600" xml:space="preserve">
<g>
	<polygon fill="#87E3FF" points="291.132,499.924 27,350.582 298.067,78.082 572.784,351.354 	"/>
	<g>
		<path d="M292.261,498.303c-35.954-20.328-71.907-40.656-107.86-60.984c-48.433-27.385-96.866-54.769-145.299-82.153
			c-3.658-2.068-7.315-4.136-10.972-6.204c0.183,1.144,0.366,2.287,0.549,3.43c25.042-25.174,50.083-50.349,75.125-75.522
			c45.022-45.261,90.045-90.521,135.068-135.782c20.292-20.398,40.583-40.797,60.874-61.195c-1.104-0.208-2.208-0.417-3.312-0.625
			c25.009,24.877,50.019,49.755,75.027,74.633c45.299,45.061,90.599,90.122,135.897,135.182
			c21.264,21.153,42.528,42.304,63.792,63.457c-0.015-0.997-0.029-1.994-0.044-2.991c-35.555,18.755-71.108,37.509-106.662,56.264
			c-51.646,27.242-103.293,54.485-154.938,81.729c-6.685,3.525-13.368,7.052-20.052,10.577c-2.396,1.264,1.147,4.783,3.356,3.617
			c35.554-18.755,71.108-37.509,106.662-56.264c51.646-27.242,103.293-54.485,154.938-81.729
			c6.685-3.525,13.368-7.052,20.052-10.577c1.114-0.588,0.646-2.305-0.044-2.991c-25.009-24.878-50.019-49.756-75.027-74.634
			c-45.299-45.061-90.599-90.122-135.897-135.182c-21.264-21.152-42.528-42.305-63.792-63.457c-0.709-0.706-2.402-1.541-3.312-0.625
			c-25.042,25.174-50.083,50.348-75.125,75.522c-45.022,45.261-90.045,90.521-135.068,135.782
			c-20.292,20.398-40.583,40.797-60.874,61.195c-1.011,1.017-0.75,2.695,0.549,3.43c35.954,20.328,71.907,40.656,107.86,60.984
			c48.433,27.385,96.866,54.769,145.299,82.153c3.658,2.068,7.315,4.136,10.972,6.204
			C292.689,503.063,295.01,499.857,292.261,498.303z"/>
	</g>
</g>
<g>
	<path d="M244.425,313.857c0,0-18.281,32.096-12.34,39.984c0,0-8.226-36.068,4.113-48.255c0,0,13.254-19.584-11.425-19.149
		c0,0-22.943,7.398-26.326,47.439c0,0,1.189,67.46,43.693,63.542c0,0,82.724,8.6,99.633,0.164c0,0,37.476-29.759,7.77-77.634
		c0,0-14.169-23.066-16.91-33.511c0,0,31.992-28.289,13.711-59.625c0,0,15.539-33.948,3.656-37.864c0,0-20.566,2.176-36.105,12.621
		c0,0-23.766,4.788-37.02-0.435c0,0-33.363-14.797-38.391-12.186c0,0-5.027,12.621,5.028,37.864c0,0-17.825,39.605,13.253,59.189"/>
	<path d="M238.55,253.813c0,0-8.324,2.223-14.89,6.186c0,0,4.839-6.257,15.15-7.539c0,0-0.789-2.202-0.189-4.371
		c0,0-16.227,2.63-18.102,3.981c0,0,3.851-4.367,18.718-6.043L238.55,253.813z"/>
	<path d="M351.231,252.331c0,0,7.828,2.478,13.889,6.638c0,0-4.3-6.395-14.068-7.997c0,0,0.862-2.172,0.399-4.356
		c0,0,15.342,3.132,17.063,4.54c0,0-3.454-4.478-17.547-6.616L351.231,252.331z"/>
	<path fill="#FFFFFF" d="M292.771,246.261c0,0-6.363,8.202-19.132-0.449c0,0-0.653,2.174,3.545,3.933c0,0,1.302,14.97,7.129,19.295
		l1.894-1.066l0.627,3.588c0,0,7.166,6.199,14.166-0.002v-3.183l1.991,0.98c0,0,7.766-9.222,7.08-20.075
		c0,0,1.696-1.387,1.526-3.468C311.426,243.732,304.896,256.951,292.771,246.261z"/>
</g>
</svg>
